<svg xmlns="http://www.w3.org/2000/svg" width="15" height="17.289" viewBox="0 0 15 17.289">
  <path id="Subtraction_13" data-name="Subtraction 13" d="M5,17.29V12.937H1a1,1,0,0,1-1-1V1A1,1,0,0,1,1,0H14a1,1,0,0,1,1,1V11.937a1,1,0,0,1-1,1H9.277L5,17.288ZM4.352,5.061a2.384,2.384,0,0,0-1.664.664A2.218,2.218,0,0,0,2,7.331,2.316,2.316,0,0,0,4.354,9.6h6.295A2.317,2.317,0,0,0,13,7.328a2.315,2.315,0,0,0-2.354-2.267H7.858V3.781a.92.92,0,0,0,.6-.858.958.958,0,0,0-1.915,0,.923.923,0,0,0,.6.859V5.061Zm3.142,3.8H7.471a.987.987,0,0,1-.7-.329.909.909,0,0,1-.229-.641l1.881-.017,0,.036v.01a.9.9,0,0,1-.237.629A.966.966,0,0,1,7.494,8.865Zm2.47-.428a1.083,1.083,0,1,1,1.122-1.082A1.1,1.1,0,0,1,9.965,8.437Zm-4.927,0A1.082,1.082,0,1,1,6.16,7.355,1.1,1.1,0,0,1,5.038,8.437Z" fill="#a8adb1"/>
</svg>
